<svg width="210mm" height="210mm" viewBox="0 0 0" xml:space="preserve" xmlns="http://www.w3.org/2000/svg">
  <g transform="translate(29.17 75.267)scale(.26458)">
    <circle style="fill:#303446;fill-opacity:1;stroke:none;stroke-width:45.8445;stroke-dasharray:none;stroke-opacity:1" cx="133.409" cy="-40.818" r="243.657"/>
    <g style="stroke-width:1.00157;stroke-dasharray:none">
      <g style="stroke-width:1.00157;stroke-dasharray:none">
        <g style="fill:#dce0e8;fill-opacity:1;stroke-width:1.06568;stroke-dasharray:none">
          <path d="M492.936 125.196a27.917 27.917 0 0 0-14.902 41.792 45.17 45.17 0 0 1-20.29 66.204 38.65 38.65 0 0 0-10.816 64.313 68.375 68.375 0 0 1-17.068-93.914 16 16 0 0 1-1.109-1.047 69.88 69.88 0 0 0 16.755 95.793 90.342 90.342 0 0 1 47.43-173.141" fill="#fff" style="fill:#c6d0f5;fill-opacity:1;stroke-width:1.06568;stroke-dasharray:none" transform="rotate(72 521.457 -92.877)scale(.93984)"/>
        </g>
        <g style="fill:#dce0e8;fill-opacity:1;stroke-width:1.06568;stroke-dasharray:none">
          <path d="M492.936 125.196a27.917 27.917 0 0 0-14.902 41.792 45.17 45.17 0 0 1-20.29 66.204 38.65 38.65 0 0 0-10.816 64.313 68.375 68.375 0 0 1-17.068-93.914 16 16 0 0 1-1.109-1.047 69.88 69.88 0 0 0 16.755 95.793 90.342 90.342 0 0 1 47.43-173.141" fill="#fff" style="fill:#c6d0f5;fill-opacity:1;stroke-width:1.06568;stroke-dasharray:none" transform="rotate(132 355.416 42.936)scale(.93984)"/>
        </g>
      </g>
      <g style="stroke-width:1.00157;stroke-dasharray:none">
        <g style="fill:#dce0e8;fill-opacity:1;stroke-width:1.06568;stroke-dasharray:none">
          <path d="M492.936 125.196a27.917 27.917 0 0 0-14.902 41.792 45.17 45.17 0 0 1-20.29 66.204 38.65 38.65 0 0 0-10.816 64.313 68.375 68.375 0 0 1-17.068-93.914 16 16 0 0 1-1.109-1.047 69.88 69.88 0 0 0 16.755 95.793 90.342 90.342 0 0 1 47.43-173.141" fill="#fff" style="fill:#c6d0f5;fill-opacity:1;stroke-width:1.06568;stroke-dasharray:none" transform="scale(-.93984 .93984)rotate(72 413.06 -294.321)"/>
        </g>
        <g style="fill:#dce0e8;fill-opacity:1;stroke-width:1.06568;stroke-dasharray:none">
          <path d="M492.936 125.196a27.917 27.917 0 0 0-14.902 41.792 45.17 45.17 0 0 1-20.29 66.204 38.65 38.65 0 0 0-10.816 64.313 68.375 68.375 0 0 1-17.068-93.914 16 16 0 0 1-1.109-1.047 69.88 69.88 0 0 0 16.755 95.793 90.342 90.342 0 0 1 47.43-173.141" fill="#fff" style="fill:#c6d0f5;fill-opacity:1;stroke-width:1.06568;stroke-dasharray:none" transform="scale(.93984 -.93984)rotate(-48 39.62 530.679)"/>
        </g>
      </g>
    </g>
    <text xml:space="preserve" style="font-size:46.6667px;fill:#303446;fill-opacity:1;stroke-width:1.00157;stroke-dasharray:none" x="133.976" y="162.676"><tspan x="133.976" y="162.676" style="font-style:normal;font-variant:normal;font-weight:400;font-stretch:normal;font-size:46.6667px;font-family:Urbanist;-inkscape-font-specification:Urbanist;text-align:center;text-anchor:middle;fill:#b5bfe2;fill-opacity:1">dotfiles</tspan></text>
  </g>
</svg>
